# xmcd CD database file
#
# Track frame offsets:
#	183
#	10828
#	19990
#	34293
#	44123
#	58285
#	68788
#	82773
#	94918
#	106870
#	121348
#	133780
#
# Disc length: 1990 seconds
#
# Revision: 0
# Processed by: cddbd v1.4PL0 Copyright (c) Steve Scherf et al.
# Submitted via: Feurio! 1.65 - http://www.feurio.com
#
DISCID=a407c40c
DTITLE=Memphis Slim - Mother Earth
DYEAR=1972
DGENRE=blues
TTITLE0=The Come Back
TTITLE1=Steppin' Out
TTITLE2=Blue And Lonesome
TTITLE3=Rockin' The Blues
TTITLE4=Slim's Blues
TTITLE5=Gotta Find My Baby
TTITLE6=Messin' Around
TTITLE7=Wish Me Well
TTITLE8=My Gal Keeps Me Crying
TTITLE9=Lend Me Your Love
TTITLE10=Sassy Mae
TTITLE11=Mother Earth
EXTD=P 1972 Buddah Records
EXTT0=
EXTT1=
EXTT2=
EXTT3=
EXTT4=
EXTT5=
EXTT6=
EXTT7=
EXTT8=
EXTT9=
EXTT10=
EXTT11=
PLAYORDER=
